# MagicaVoxel @ Ephtracy

# group
o 

# material
mtllib Pistol.mtl
usemtl palette

# normals
vn -1 0 0
vn 1 0 0
vn 0 0 1
vn 0 0 -1
vn 0 -1 0
vn 0 1 0

# texcoords
vt 0.869141 0.5
vt 0.990234 0.5

# verts
v -2.5 1.6 0.3
v -2.5 1.6 -0.3
v -2.5 2.2 0.3
v -2.5 2.2 0.1
v -2.5 2.2 -0.1
v -2.5 2.2 -0.3
v -2.5 2.4 0.1
v -2.5 2.4 -0.1
v -1.7 1.4 0.3
v -1.7 1.4 -0.3
v -1.7 1.6 0.3
v -1.7 1.6 -0.3
v -1.3 1.2 0.1
v -1.3 1.2 -0.1
v -1.3 1.4 0.1
v -1.3 1.4 -0.1
v -1.1 1 0.1
v -1.1 1 -0.1
v -1.1 1.2 0.1
v -1.1 1.2 -0.1
v -0.7 1.2 0.1
v -0.7 1.2 -0.1
v -0.7 1.4 0.1
v -0.7 1.4 -0.1
v -0.5 0 0.3
v -0.5 0 -0.3
v -0.5 1 0.1
v -0.5 1 -0.1
v -0.5 1.4 0.3
v -0.5 1.4 0.1
v -0.5 1.4 -0.1
v -0.5 1.4 -0.3
v 0.1 2.2 0.3
v 0.1 2.2 0.1
v 0.1 2.2 -0.1
v 0.1 2.2 -0.3
v 0.1 2.4 0.3
v 0.1 2.4 0.1
v 0.1 2.4 -0.1
v 0.1 2.4 -0.3
v -2.3 2.2 0.1
v -2.3 2.2 -0.1
v -2.3 2.4 0.1
v -2.3 2.4 -0.1
v -1.1 1.2 0.1
v -1.1 1.2 -0.1
v -1.1 1.4 0.1
v -1.1 1.4 -0.1
v 0.3 2.2 0.3
v 0.3 2.2 0.1
v 0.3 2.2 -0.1
v 0.3 2.2 -0.3
v 0.3 2.4 0.3
v 0.3 2.4 0.1
v 0.3 2.4 -0.1
v 0.3 2.4 -0.3
v 0.5 0 0.3
v 0.5 0 -0.3
v 0.5 1.6 0.3
v 0.5 1.6 -0.3
v 0.5 2.2 0.3
v 0.5 2.2 -0.3
v -2.5 1.6 0.3
v -2.5 2.2 0.3
v -1.7 1.4 0.3
v -1.7 1.6 0.3
v -0.5 0 0.3
v -0.5 1.4 0.3
v -0.0999999 0.2 0.3
v -0.0999999 0.4 0.3
v -0.0999999 1 0.3
v -0.0999999 1.2 0.3
v -0.0999999 1.4 0.3
v -0.0999999 1.6 0.3
v 0.1 0.2 0.3
v 0.1 0.4 0.3
v 0.1 1 0.3
v 0.1 1.2 0.3
v 0.1 2.2 0.3
v 0.1 2.4 0.3
v 0.3 2.2 0.3
v 0.3 2.4 0.3
v 0.5 0 0.3
v 0.5 1.6 0.3
v 0.5 2.2 0.3
v -2.5 2.2 0.1
v -2.5 2.4 0.1
v -2.3 2.2 0.1
v -2.3 2.4 0.1
v -1.3 1.2 0.1
v -1.3 1.4 0.1
v -1.1 1 0.1
v -1.1 1.2 0.1
v -1.1 1.4 0.1
v -0.7 1.2 0.1
v -0.7 1.4 0.1
v -0.5 1 0.1
v -0.5 1.4 0.1
v 0.1 2.2 -0.1
v 0.1 2.4 -0.1
v 0.3 2.2 -0.1
v 0.3 2.4 -0.1
v 0.1 2.2 0.1
v 0.1 2.4 0.1
v 0.3 2.2 0.1
v 0.3 2.4 0.1
v -2.5 2.2 -0.1
v -2.5 2.4 -0.1
v -2.3 2.2 -0.1
v -2.3 2.4 -0.1
v -1.3 1.2 -0.1
v -1.3 1.4 -0.1
v -1.1 1 -0.1
v -1.1 1.2 -0.1
v -1.1 1.4 -0.1
v -0.7 1.2 -0.1
v -0.7 1.4 -0.1
v -0.5 1 -0.1
v -0.5 1.4 -0.1
v -2.5 1.6 -0.3
v -2.5 2.2 -0.3
v -1.7 1.4 -0.3
v -1.7 1.6 -0.3
v -0.5 0 -0.3
v -0.5 1.4 -0.3
v -0.0999999 0.2 -0.3
v -0.0999999 0.4 -0.3
v -0.0999999 1 -0.3
v -0.0999999 1.2 -0.3
v -0.0999999 1.4 -0.3
v -0.0999999 1.6 -0.3
v 0.1 0.2 -0.3
v 0.1 0.4 -0.3
v 0.1 1 -0.3
v 0.1 1.2 -0.3
v 0.1 2.2 -0.3
v 0.1 2.4 -0.3
v 0.3 2.2 -0.3
v 0.3 2.4 -0.3
v 0.5 0 -0.3
v 0.5 1.6 -0.3
v 0.5 2.2 -0.3
v -0.5 0 0.3
v 0.5 0 0.3
v -0.3 0 0.1
v 0.3 0 0.1
v -0.3 0 -0.1
v 0.3 0 -0.1
v -0.5 0 -0.3
v 0.5 0 -0.3
v -1.1 1 0.1
v -0.5 1 0.1
v -1.1 1 -0.1
v -0.5 1 -0.1
v -1.3 1.2 0.1
v -1.1 1.2 0.1
v -1.3 1.2 -0.1
v -1.1 1.2 -0.1
v -1.7 1.4 0.3
v -0.5 1.4 0.3
v -1.3 1.4 0.1
v -1.1 1.4 0.1
v -0.7 1.4 0.1
v -0.5 1.4 0.1
v -1.3 1.4 -0.1
v -1.1 1.4 -0.1
v -0.7 1.4 -0.1
v -0.5 1.4 -0.1
v -1.7 1.4 -0.3
v -0.5 1.4 -0.3
v -2.5 1.6 0.3
v -1.7 1.6 0.3
v -2.5 1.6 -0.3
v -1.7 1.6 -0.3
v -1.1 1.2 0.1
v -0.7 1.2 0.1
v -1.1 1.2 -0.1
v -0.7 1.2 -0.1
v -2.5 2.2 0.3
v 0.1 2.2 0.3
v 0.3 2.2 0.3
v 0.5 2.2 0.3
v -2.5 2.2 0.1
v -2.3 2.2 0.1
v 0.1 2.2 0.1
v 0.3 2.2 0.1
v -2.5 2.2 -0.1
v -2.3 2.2 -0.1
v 0.1 2.2 -0.1
v 0.3 2.2 -0.1
v -2.5 2.2 -0.3
v 0.1 2.2 -0.3
v 0.3 2.2 -0.3
v 0.5 2.2 -0.3
v 0.1 2.4 0.3
v 0.3 2.4 0.3
v -2.5 2.4 0.1
v -2.3 2.4 0.1
v 0.1 2.4 0.1
v 0.3 2.4 0.1
v -2.5 2.4 -0.1
v -2.3 2.4 -0.1
v 0.1 2.4 -0.1
v 0.3 2.4 -0.1
v 0.1 2.4 -0.3
v 0.3 2.4 -0.3

# faces
f 3/2/1 2/2/1 1/2/1
f 4/2/1 2/2/1 3/2/1
f 5/2/1 2/2/1 4/2/1
f 6/2/1 2/2/1 5/2/1
f 7/2/1 5/2/1 4/2/1
f 8/2/1 5/2/1 7/2/1
f 11/2/1 10/2/1 9/2/1
f 12/2/1 10/2/1 11/2/1
f 15/2/1 14/2/1 13/2/1
f 16/2/1 14/2/1 15/2/1
f 19/2/1 18/2/1 17/2/1
f 20/2/1 18/2/1 19/2/1
f 23/2/1 22/2/1 21/2/1
f 24/2/1 22/2/1 23/2/1
f 27/1/1 26/1/1 25/1/1
f 28/1/1 26/1/1 27/1/1
f 29/1/1 27/1/1 25/1/1
f 30/1/1 27/1/1 29/1/1
f 31/1/1 26/1/1 28/1/1
f 32/1/1 26/1/1 31/1/1
f 37/2/1 34/2/1 33/2/1
f 38/2/1 34/2/1 37/2/1
f 39/2/1 36/2/1 35/2/1
f 40/2/1 36/2/1 39/2/1
f 41/2/2 42/2/2 43/2/2
f 43/2/2 42/2/2 44/2/2
f 45/2/2 46/2/2 47/2/2
f 47/2/2 46/2/2 48/2/2
f 49/2/2 50/2/2 53/2/2
f 53/2/2 50/2/2 54/2/2
f 51/2/2 52/2/2 55/2/2
f 55/2/2 52/2/2 56/2/2
f 57/1/2 58/1/2 59/1/2
f 59/1/2 58/1/2 60/1/2
f 59/2/2 60/2/2 61/2/2
f 61/2/2 60/2/2 62/2/2
f 66/2/3 64/2/3 63/2/3
f 68/2/3 66/2/3 65/2/3
f 69/1/3 68/1/3 67/1/3
f 70/1/3 68/1/3 69/1/3
f 71/1/3 68/1/3 70/1/3
f 72/1/3 68/1/3 71/1/3
f 73/2/3 66/2/3 68/2/3
f 73/1/3 68/1/3 72/1/3
f 74/2/3 64/2/3 66/2/3
f 74/2/3 66/2/3 73/2/3
f 75/1/3 69/1/3 67/1/3
f 75/2/3 70/2/3 69/2/3
f 76/1/3 71/1/3 70/1/3
f 76/2/3 70/2/3 75/2/3
f 77/2/3 72/2/3 71/2/3
f 77/1/3 71/1/3 76/1/3
f 78/1/3 73/1/3 72/1/3
f 78/2/3 72/2/3 77/2/3
f 78/1/3 74/1/3 73/1/3
f 79/2/3 64/2/3 74/2/3
f 81/2/3 79/2/3 74/2/3
f 81/2/3 80/2/3 79/2/3
f 82/2/3 80/2/3 81/2/3
f 83/1/3 77/1/3 76/1/3
f 83/1/3 76/1/3 75/1/3
f 83/1/3 75/1/3 67/1/3
f 83/1/3 78/1/3 77/1/3
f 84/2/3 81/2/3 74/2/3
f 84/1/3 78/1/3 83/1/3
f 84/1/3 74/1/3 78/1/3
f 85/2/3 81/2/3 84/2/3
f 88/2/3 87/2/3 86/2/3
f 89/2/3 87/2/3 88/2/3
f 93/2/3 91/2/3 90/2/3
f 94/2/3 91/2/3 93/2/3
f 95/2/3 93/2/3 92/2/3
f 97/2/3 95/2/3 92/2/3
f 97/2/3 96/2/3 95/2/3
f 98/2/3 96/2/3 97/2/3
f 101/2/3 100/2/3 99/2/3
f 102/2/3 100/2/3 101/2/3
f 103/2/4 104/2/4 105/2/4
f 105/2/4 104/2/4 106/2/4
f 107/2/4 108/2/4 109/2/4
f 109/2/4 108/2/4 110/2/4
f 111/2/4 112/2/4 114/2/4
f 114/2/4 112/2/4 115/2/4
f 113/2/4 114/2/4 116/2/4
f 113/2/4 116/2/4 118/2/4
f 116/2/4 117/2/4 118/2/4
f 118/2/4 117/2/4 119/2/4
f 120/2/4 121/2/4 123/2/4
f 122/2/4 123/2/4 125/2/4
f 124/1/4 125/1/4 126/1/4
f 126/1/4 125/1/4 127/1/4
f 127/1/4 125/1/4 128/1/4
f 128/1/4 125/1/4 129/1/4
f 125/2/4 123/2/4 130/2/4
f 129/1/4 125/1/4 130/1/4
f 123/2/4 121/2/4 131/2/4
f 130/2/4 123/2/4 131/2/4
f 124/1/4 126/1/4 132/1/4
f 126/2/4 127/2/4 132/2/4
f 127/1/4 128/1/4 133/1/4
f 132/2/4 127/2/4 133/2/4
f 128/2/4 129/2/4 134/2/4
f 133/1/4 128/1/4 134/1/4
f 129/1/4 130/1/4 135/1/4
f 134/2/4 129/2/4 135/2/4
f 130/1/4 131/1/4 135/1/4
f 131/2/4 121/2/4 136/2/4
f 131/2/4 136/2/4 138/2/4
f 136/2/4 137/2/4 138/2/4
f 138/2/4 137/2/4 139/2/4
f 133/1/4 134/1/4 140/1/4
f 132/1/4 133/1/4 140/1/4
f 124/1/4 132/1/4 140/1/4
f 134/1/4 135/1/4 140/1/4
f 131/2/4 138/2/4 141/2/4
f 140/1/4 135/1/4 141/1/4
f 135/1/4 131/1/4 141/1/4
f 141/2/4 138/2/4 142/2/4
f 145/1/5 144/1/5 143/1/5
f 146/1/5 144/1/5 145/1/5
f 147/1/5 145/1/5 143/1/5
f 147/2/5 146/2/5 145/2/5
f 148/1/5 144/1/5 146/1/5
f 148/2/5 146/2/5 147/2/5
f 149/1/5 147/1/5 143/1/5
f 149/1/5 148/1/5 147/1/5
f 150/1/5 144/1/5 148/1/5
f 150/1/5 148/1/5 149/1/5
f 153/2/5 152/2/5 151/2/5
f 154/2/5 152/2/5 153/2/5
f 157/2/5 156/2/5 155/2/5
f 158/2/5 156/2/5 157/2/5
f 161/2/5 160/2/5 159/2/5
f 162/2/5 160/2/5 161/2/5
f 163/2/5 160/2/5 162/2/5
f 164/2/5 160/2/5 163/2/5
f 165/2/5 161/2/5 159/2/5
f 166/2/5 163/2/5 162/2/5
f 167/2/5 163/2/5 166/2/5
f 169/2/5 165/2/5 159/2/5
f 169/2/5 168/2/5 167/2/5
f 169/2/5 167/2/5 166/2/5
f 169/2/5 166/2/5 165/2/5
f 170/2/5 168/2/5 169/2/5
f 173/2/5 172/2/5 171/2/5
f 174/2/5 172/2/5 173/2/5
f 175/2/6 176/2/6 177/2/6
f 177/2/6 176/2/6 178/2/6
f 179/2/6 180/2/6 183/2/6
f 183/2/6 180/2/6 184/2/6
f 184/2/6 180/2/6 185/2/6
f 181/2/6 182/2/6 186/2/6
f 184/2/6 185/2/6 188/2/6
f 185/2/6 186/2/6 188/2/6
f 188/2/6 186/2/6 189/2/6
f 186/2/6 182/2/6 190/2/6
f 189/2/6 186/2/6 190/2/6
f 188/2/6 189/2/6 191/2/6
f 187/2/6 188/2/6 191/2/6
f 191/2/6 189/2/6 192/2/6
f 190/2/6 182/2/6 193/2/6
f 193/2/6 182/2/6 194/2/6
f 195/2/6 196/2/6 199/2/6
f 199/2/6 196/2/6 200/2/6
f 197/2/6 198/2/6 201/2/6
f 201/2/6 198/2/6 202/2/6
f 203/2/6 204/2/6 205/2/6
f 205/2/6 204/2/6 206/2/6
