# MagicaVoxel @ Ephtracy

# group
o 

# material
mtllib Rifle_1.mtl
usemtl palette

# normals
vn -1 0 0
vn 1 0 0
vn 0 0 1
vn 0 0 -1
vn 0 -1 0
vn 0 1 0

# texcoords
vt 0.537109 0.5
vt 0.986328 0.5
vt 0.990234 0.5

# verts
v -4.6 1.9 0.1
v -4.6 1.9 -0.1
v -4.6 2.1 0.1
v -4.6 2.1 -0.1
v -4 2.1 0.1
v -4 2.1 -0.1
v -4 2.3 0.1
v -4 2.3 -0.1
v -3.6 2.3 0.1
v -3.6 2.3 -0.1
v -3.6 2.7 0.1
v -3.6 2.7 -0.1
v -2.6 1.7 0.2
v -2.6 1.7 -0.2
v -2.6 1.8 0.3
v -2.6 1.8 0.2
v -2.6 1.8 -0.2
v -2.6 1.8 -0.3
v -2.6 1.9 0.1
v -2.6 1.9 -0.1
v -2.6 2.3 0.1
v -2.6 2.3 -0.1
v -2.6 2.4 0.3
v -2.6 2.4 0.2
v -2.6 2.4 -0.2
v -2.6 2.4 -0.3
v -2.6 2.5 0.2
v -2.6 2.5 -0.2
v -1 1.6 0.2
v -1 1.6 -0.2
v -1 1.7 0.2
v -1 1.7 -0.2
v -0.9 1.6 0.3
v -0.9 1.6 0.2
v -0.9 1.6 -0.2
v -0.9 1.6 -0.3
v -0.9 1.8 0.3
v -0.9 1.8 0.2
v -0.9 1.8 -0.2
v -0.9 1.8 -0.3
v -0.8 1.5 0.3
v -0.8 1.5 -0.3
v -0.8 1.6 0.3
v -0.8 1.6 -0.3
v -0.6 0.2 0.2
v -0.6 0.2 -0.2
v -0.6 0.3 0.2
v -0.6 0.3 -0.2
v -0.5 0.3 0.2
v -0.5 0.3 -0.2
v -0.5 0.6 0.2
v -0.5 0.6 -0.2
v -0.4 0.1 0.2
v -0.4 0.1 -0.2
v -0.4 0.2 0.2
v -0.4 0.2 -0.2
v -0.4 0.6 0.2
v -0.4 0.6 -0.2
v -0.4 1 0.2
v -0.4 1 -0.2
v -0.3 1 0.2
v -0.3 1 -0.2
v -0.3 1.5 0.2
v -0.3 1.5 -0.2
v -0.0999999 0 0.2
v -0.0999999 0 -0.2
v -0.0999999 0.1 0.2
v -0.0999999 0.1 -0.2
v 1.4 2.5 0.2
v 1.4 2.5 0.1
v 1.4 2.5 -0.1
v 1.4 2.5 -0.2
v 1.4 2.7 0.2
v 1.4 2.7 0.1
v 1.4 2.7 -0.1
v 1.4 2.7 -0.2
v 1.6 0.5 0.2
v 1.6 0.5 -0.2
v 1.6 1.5 0.2
v 1.6 1.5 -0.2
v 3.6 1.1 0.3
v 3.6 1.1 -0.3
v 3.6 1.5 0.3
v 3.6 1.5 -0.3
v 4 0.7 0.3
v 4 0.7 -0.3
v 4 1.1 0.3
v 4 1.1 -0.3
v -3.4 2.3 0.1
v -3.4 2.3 -0.1
v -3.4 2.7 0.1
v -3.4 2.7 -0.1
v 0.1 0 0.2
v 0.1 0 -0.2
v 0.1 0.1 0.2
v 0.1 0.1 -0.2
v 0.2 0.1 0.2
v 0.2 0.1 -0.2
v 0.2 0.3 0.2
v 0.2 0.3 -0.2
v 0.3 0.3 0.2
v 0.3 0.3 -0.2
v 0.3 0.6 0.2
v 0.3 0.6 -0.2
v 0.4 0.6 0.2
v 0.4 0.6 -0.2
v 0.4 1 0.2
v 0.4 1 -0.2
v 0.5 1 0.2
v 0.5 1 -0.2
v 0.5 1.5 0.2
v 0.5 1.5 -0.2
v 1.6 2.5 0.2
v 1.6 2.5 0.1
v 1.6 2.5 -0.1
v 1.6 2.5 -0.2
v 1.6 2.7 0.2
v 1.6 2.7 0.1
v 1.6 2.7 -0.1
v 1.6 2.7 -0.2
v 1.8 2.2 0.3
v 1.8 2.2 0.2
v 1.8 2.2 -0.2
v 1.8 2.2 -0.3
v 1.8 2.3 0.2
v 1.8 2.3 -0.2
v 1.8 2.4 0.3
v 1.8 2.4 0.2
v 1.8 2.4 -0.2
v 1.8 2.4 -0.3
v 1.8 2.5 0.2
v 1.8 2.5 -0.2
v 2.2 0.5 0.2
v 2.2 0.5 -0.2
v 2.2 1.5 0.2
v 2.2 1.5 -0.2
v 2.2 2.1 0.3
v 2.2 2.1 -0.3
v 2.2 2.2 0.3
v 2.2 2.2 0.2
v 2.2 2.2 -0.2
v 2.2 2.2 -0.3
v 2.2 2.3 0.2
v 2.2 2.3 -0.2
v 4.6 0.7 0.3
v 4.6 0.7 -0.3
v 4.6 2.1 0.3
v 4.6 2.1 -0.3
v -2.6 1.8 0.3
v -2.6 2.4 0.3
v -1 2.1 0.3
v -1 2.4 0.3
v -0.9 1.6 0.3
v -0.9 1.8 0.3
v -0.8 1.5 0.3
v -0.8 1.6 0.3
v -0.7 1.6 0.3
v -0.7 2.1 0.3
v 1.8 2.2 0.3
v 1.8 2.4 0.3
v 2.2 2.1 0.3
v 2.2 2.2 0.3
v 3.6 1.1 0.3
v 3.6 1.5 0.3
v 4 0.7 0.3
v 4 1.1 0.3
v 4.6 0.7 0.3
v 4.6 2.1 0.3
v -2.6 1.7 0.2
v -2.6 1.8 0.2
v -2.6 2.4 0.2
v -2.6 2.5 0.2
v -1 1.6 0.2
v -1 1.7 0.2
v -1 2.4 0.2
v -1 2.5 0.2
v -0.9 1.6 0.2
v -0.9 1.8 0.2
v -0.6 0.2 0.2
v -0.6 0.3 0.2
v -0.5 0.3 0.2
v -0.5 0.6 0.2
v -0.4 0.1 0.2
v -0.4 0.2 0.2
v -0.4 0.6 0.2
v -0.4 1 0.2
v -0.3 1 0.2
v -0.3 1.5 0.2
v -0.0999999 0 0.2
v -0.0999999 0.1 0.2
v 0.1 0 0.2
v 0.1 0.1 0.2
v 0.2 0.1 0.2
v 0.2 0.3 0.2
v 0.3 0.3 0.2
v 0.3 0.6 0.2
v 0.4 0.6 0.2
v 0.4 1 0.2
v 0.5 1 0.2
v 0.5 1.5 0.2
v 1.4 2.5 0.2
v 1.4 2.7 0.2
v 1.6 0.5 0.2
v 1.6 1.5 0.2
v 1.6 2.5 0.2
v 1.6 2.7 0.2
v 1.8 2.2 0.2
v 1.8 2.3 0.2
v 1.8 2.4 0.2
v 1.8 2.5 0.2
v 2.2 0.5 0.2
v 2.2 1.5 0.2
v 2.2 2.2 0.2
v 2.2 2.3 0.2
v -4.6 1.9 0.1
v -4.6 2.1 0.1
v -4 2.1 0.1
v -4 2.3 0.1
v -3.6 2.3 0.1
v -3.6 2.7 0.1
v -3.4 2.3 0.1
v -3.4 2.7 0.1
v -2.6 1.9 0.1
v -2.6 2.3 0.1
v 1.4 2.5 -0.1
v 1.4 2.7 -0.1
v 1.6 2.5 -0.1
v 1.6 2.7 -0.1
v 1.4 2.5 0.1
v 1.4 2.7 0.1
v 1.6 2.5 0.1
v 1.6 2.7 0.1
v -4.6 1.9 -0.1
v -4.6 2.1 -0.1
v -4 2.1 -0.1
v -4 2.3 -0.1
v -3.6 2.3 -0.1
v -3.6 2.7 -0.1
v -3.4 2.3 -0.1
v -3.4 2.7 -0.1
v -2.6 1.9 -0.1
v -2.6 2.3 -0.1
v -2.6 1.7 -0.2
v -2.6 1.8 -0.2
v -2.6 2.4 -0.2
v -2.6 2.5 -0.2
v -1 1.6 -0.2
v -1 1.7 -0.2
v -1 2.4 -0.2
v -1 2.5 -0.2
v -0.9 1.6 -0.2
v -0.9 1.8 -0.2
v -0.6 0.2 -0.2
v -0.6 0.3 -0.2
v -0.5 0.3 -0.2
v -0.5 0.6 -0.2
v -0.4 0.1 -0.2
v -0.4 0.2 -0.2
v -0.4 0.6 -0.2
v -0.4 1 -0.2
v -0.3 1 -0.2
v -0.3 1.5 -0.2
v -0.0999999 0 -0.2
v -0.0999999 0.1 -0.2
v 0.1 0 -0.2
v 0.1 0.1 -0.2
v 0.2 0.1 -0.2
v 0.2 0.3 -0.2
v 0.3 0.3 -0.2
v 0.3 0.6 -0.2
v 0.4 0.6 -0.2
v 0.4 1 -0.2
v 0.5 1 -0.2
v 0.5 1.5 -0.2
v 1.4 2.5 -0.2
v 1.4 2.7 -0.2
v 1.6 0.5 -0.2
v 1.6 1.5 -0.2
v 1.6 2.5 -0.2
v 1.6 2.7 -0.2
v 1.8 2.2 -0.2
v 1.8 2.3 -0.2
v 1.8 2.4 -0.2
v 1.8 2.5 -0.2
v 2.2 0.5 -0.2
v 2.2 1.5 -0.2
v 2.2 2.2 -0.2
v 2.2 2.3 -0.2
v -2.6 1.8 -0.3
v -2.6 2.4 -0.3
v -1 2.1 -0.3
v -1 2.4 -0.3
v -0.9 1.6 -0.3
v -0.9 1.8 -0.3
v -0.8 1.5 -0.3
v -0.8 1.6 -0.3
v -0.7 1.6 -0.3
v -0.7 2.1 -0.3
v 1.8 2.2 -0.3
v 1.8 2.4 -0.3
v 2.2 2.1 -0.3
v 2.2 2.2 -0.3
v 3.6 1.1 -0.3
v 3.6 1.5 -0.3
v 4 0.7 -0.3
v 4 1.1 -0.3
v 4.6 0.7 -0.3
v 4.6 2.1 -0.3
v -0.0999999 0 0.2
v 0.1 0 0.2
v -0.0999999 0 -0.2
v 0.1 0 -0.2
v -0.4 0.1 0.2
v -0.0999999 0.1 0.2
v 0.1 0.1 0.2
v 0.2 0.1 0.2
v -0.4 0.1 -0.2
v -0.0999999 0.1 -0.2
v 0.1 0.1 -0.2
v 0.2 0.1 -0.2
v -0.6 0.2 0.2
v -0.4 0.2 0.2
v -0.6 0.2 -0.2
v -0.4 0.2 -0.2
v 0.2 0.3 0.2
v 0.3 0.3 0.2
v 0.2 0.3 -0.2
v 0.3 0.3 -0.2
v 1.6 0.5 0.2
v 2.2 0.5 0.2
v 1.6 0.5 -0.2
v 2.2 0.5 -0.2
v 0.3 0.6 0.2
v 0.4 0.6 0.2
v 0.3 0.6 -0.2
v 0.4 0.6 -0.2
v 4 0.7 0.3
v 4.6 0.7 0.3
v 4 0.7 -0.3
v 4.6 0.7 -0.3
v 0.4 1 0.2
v 0.5 1 0.2
v 0.4 1 -0.2
v 0.5 1 -0.2
v 3.6 1.1 0.3
v 4 1.1 0.3
v 3.6 1.1 -0.3
v 4 1.1 -0.3
v -0.8 1.5 0.3
v 3.6 1.5 0.3
v -0.3 1.5 0.2
v 0.5 1.5 0.2
v 1.6 1.5 0.2
v 2.2 1.5 0.2
v -0.3 1.5 -0.2
v 0.5 1.5 -0.2
v 1.6 1.5 -0.2
v 2.2 1.5 -0.2
v -0.8 1.5 -0.3
v 3.6 1.5 -0.3
v -0.9 1.6 0.3
v -0.8 1.6 0.3
v -1 1.6 0.2
v -0.9 1.6 0.2
v -1 1.6 -0.2
v -0.9 1.6 -0.2
v -0.9 1.6 -0.3
v -0.8 1.6 -0.3
v -2.6 1.7 0.2
v -1 1.7 0.2
v -2.6 1.7 -0.2
v -1 1.7 -0.2
v -2.6 1.8 0.3
v -0.9 1.8 0.3
v -2.6 1.8 0.2
v -0.9 1.8 0.2
v -2.6 1.8 -0.2
v -0.9 1.8 -0.2
v -2.6 1.8 -0.3
v -0.9 1.8 -0.3
v -4.6 1.9 0.1
v -2.6 1.9 0.1
v -4.6 1.9 -0.1
v -2.6 1.9 -0.1
v -0.6 0.3 0.2
v -0.5 0.3 0.2
v -0.6 0.3 -0.2
v -0.5 0.3 -0.2
v -0.5 0.6 0.2
v -0.4 0.6 0.2
v -0.5 0.6 -0.2
v -0.4 0.6 -0.2
v -0.4 1 0.2
v -0.3 1 0.2
v -0.4 1 -0.2
v -0.3 1 -0.2
v 2.2 2.1 0.3
v 4.6 2.1 0.3
v -4.6 2.1 0.1
v -4 2.1 0.1
v -4.6 2.1 -0.1
v -4 2.1 -0.1
v 2.2 2.1 -0.3
v 4.6 2.1 -0.3
v 1.8 2.2 0.3
v 2.2 2.2 0.3
v 1.8 2.2 0.2
v 2.2 2.2 0.2
v 1.8 2.2 -0.2
v 2.2 2.2 -0.2
v 1.8 2.2 -0.3
v 2.2 2.2 -0.3
v 1.8 2.3 0.2
v 2.2 2.3 0.2
v -4 2.3 0.1
v -3.6 2.3 0.1
v -3.4 2.3 0.1
v -2.6 2.3 0.1
v -4 2.3 -0.1
v -3.6 2.3 -0.1
v -3.4 2.3 -0.1
v -2.6 2.3 -0.1
v 1.8 2.3 -0.2
v 2.2 2.3 -0.2
v -2.6 2.4 0.3
v -1 2.4 0.3
v 1.8 2.4 0.3
v -2.6 2.4 0.2
v -1 2.4 0.2
v 1.8 2.4 0.2
v -2.6 2.4 -0.2
v -1 2.4 -0.2
v 1.8 2.4 -0.2
v -2.6 2.4 -0.3
v -1 2.4 -0.3
v 1.8 2.4 -0.3
v -2.6 2.5 0.2
v -1 2.5 0.2
v 1.4 2.5 0.2
v 1.6 2.5 0.2
v 1.8 2.5 0.2
v 1.4 2.5 0.1
v 1.6 2.5 0.1
v 1.4 2.5 -0.1
v 1.6 2.5 -0.1
v -2.6 2.5 -0.2
v -1 2.5 -0.2
v 1.4 2.5 -0.2
v 1.6 2.5 -0.2
v 1.8 2.5 -0.2
v 1.4 2.7 0.2
v 1.6 2.7 0.2
v -3.6 2.7 0.1
v -3.4 2.7 0.1
v 1.4 2.7 0.1
v 1.6 2.7 0.1
v -3.6 2.7 -0.1
v -3.4 2.7 -0.1
v 1.4 2.7 -0.1
v 1.6 2.7 -0.1
v 1.4 2.7 -0.2
v 1.6 2.7 -0.2

# faces
f 3/2/1 2/2/1 1/2/1
f 4/2/1 2/2/1 3/2/1
f 7/2/1 6/2/1 5/2/1
f 8/2/1 6/2/1 7/2/1
f 11/2/1 10/2/1 9/2/1
f 12/2/1 10/2/1 11/2/1
f 16/1/1 14/1/1 13/1/1
f 17/1/1 14/1/1 16/1/1
f 19/1/1 16/1/1 15/1/1
f 19/1/1 18/1/1 17/1/1
f 19/1/1 17/1/1 16/1/1
f 20/1/1 18/1/1 19/1/1
f 21/1/1 19/1/1 15/1/1
f 22/1/1 18/1/1 20/1/1
f 23/1/1 21/1/1 15/1/1
f 23/1/1 22/1/1 21/1/1
f 24/1/1 22/1/1 23/1/1
f 25/1/1 18/1/1 22/1/1
f 25/1/1 22/1/1 24/1/1
f 26/1/1 18/1/1 25/1/1
f 27/1/1 25/1/1 24/1/1
f 28/1/1 25/1/1 27/1/1
f 31/1/1 30/1/1 29/1/1
f 32/1/1 30/1/1 31/1/1
f 37/1/1 34/1/1 33/1/1
f 38/1/1 34/1/1 37/1/1
f 39/1/1 36/1/1 35/1/1
f 40/1/1 36/1/1 39/1/1
f 43/3/1 42/3/1 41/3/1
f 44/3/1 42/3/1 43/3/1
f 47/3/1 46/3/1 45/3/1
f 48/3/1 46/3/1 47/3/1
f 51/3/1 50/3/1 49/3/1
f 52/3/1 50/3/1 51/3/1
f 55/3/1 54/3/1 53/3/1
f 56/3/1 54/3/1 55/3/1
f 59/3/1 58/3/1 57/3/1
f 60/3/1 58/3/1 59/3/1
f 63/3/1 62/3/1 61/3/1
f 64/3/1 62/3/1 63/3/1
f 67/3/1 66/3/1 65/3/1
f 68/3/1 66/3/1 67/3/1
f 73/3/1 70/3/1 69/3/1
f 74/3/1 70/3/1 73/3/1
f 75/3/1 72/3/1 71/3/1
f 76/3/1 72/3/1 75/3/1
f 79/1/1 78/1/1 77/1/1
f 80/1/1 78/1/1 79/1/1
f 83/3/1 82/3/1 81/3/1
f 84/3/1 82/3/1 83/3/1
f 87/3/1 86/3/1 85/3/1
f 88/3/1 86/3/1 87/3/1
f 89/2/2 90/2/2 91/2/2
f 91/2/2 90/2/2 92/2/2
f 93/3/2 94/3/2 95/3/2
f 95/3/2 94/3/2 96/3/2
f 97/3/2 98/3/2 99/3/2
f 99/3/2 98/3/2 100/3/2
f 101/3/2 102/3/2 103/3/2
f 103/3/2 102/3/2 104/3/2
f 105/3/2 106/3/2 107/3/2
f 107/3/2 106/3/2 108/3/2
f 109/3/2 110/3/2 111/3/2
f 111/3/2 110/3/2 112/3/2
f 113/3/2 114/3/2 117/3/2
f 117/3/2 114/3/2 118/3/2
f 115/3/2 116/3/2 119/3/2
f 119/3/2 116/3/2 120/3/2
f 121/3/2 122/3/2 125/3/2
f 123/3/2 124/3/2 126/3/2
f 121/3/2 125/3/2 127/3/2
f 125/3/2 126/3/2 127/3/2
f 127/3/2 126/3/2 128/3/2
f 126/3/2 124/3/2 129/3/2
f 128/3/2 126/3/2 129/3/2
f 129/3/2 124/3/2 130/3/2
f 128/3/2 129/3/2 131/3/2
f 131/3/2 129/3/2 132/3/2
f 133/1/2 134/1/2 135/1/2
f 135/1/2 134/1/2 136/1/2
f 137/3/2 138/3/2 139/3/2
f 139/3/2 138/3/2 140/3/2
f 140/3/2 138/3/2 141/3/2
f 141/3/2 138/3/2 142/3/2
f 140/3/2 141/3/2 143/3/2
f 143/3/2 141/3/2 144/3/2
f 145/3/2 146/3/2 147/3/2
f 147/3/2 146/3/2 148/3/2
f 151/1/3 150/1/3 149/1/3
f 152/1/3 150/1/3 151/1/3
f 154/1/3 151/1/3 149/1/3
f 156/1/3 154/1/3 153/1/3
f 157/1/3 154/1/3 156/1/3
f 157/3/3 156/3/3 155/3/3
f 158/3/3 152/3/3 151/3/3
f 158/1/3 154/1/3 157/1/3
f 158/1/3 151/1/3 154/1/3
f 159/3/3 158/3/3 157/3/3
f 159/3/3 152/3/3 158/3/3
f 160/3/3 152/3/3 159/3/3
f 161/3/3 159/3/3 157/3/3
f 162/3/3 159/3/3 161/3/3
f 164/3/3 157/3/3 155/3/3
f 164/3/3 161/3/3 157/3/3
f 166/3/3 164/3/3 163/3/3
f 167/3/3 166/3/3 165/3/3
f 168/3/3 161/3/3 164/3/3
f 168/3/3 166/3/3 167/3/3
f 168/3/3 164/3/3 166/3/3
f 174/1/3 170/1/3 169/1/3
f 175/1/3 172/1/3 171/1/3
f 176/1/3 172/1/3 175/1/3
f 177/1/3 174/1/3 173/1/3
f 178/1/3 170/1/3 174/1/3
f 178/1/3 174/1/3 177/1/3
f 181/3/3 180/3/3 179/3/3
f 184/3/3 181/3/3 179/3/3
f 184/3/3 182/3/3 181/3/3
f 185/3/3 182/3/3 184/3/3
f 187/3/3 184/3/3 183/3/3
f 187/3/3 186/3/3 185/3/3
f 187/3/3 185/3/3 184/3/3
f 190/3/3 187/3/3 183/3/3
f 190/3/3 188/3/3 187/3/3
f 191/3/3 190/3/3 189/3/3
f 192/3/3 188/3/3 190/3/3
f 192/3/3 190/3/3 191/3/3
f 193/3/3 188/3/3 192/3/3
f 194/3/3 188/3/3 193/3/3
f 195/3/3 188/3/3 194/3/3
f 196/3/3 188/3/3 195/3/3
f 197/3/3 188/3/3 196/3/3
f 198/3/3 188/3/3 197/3/3
f 199/3/3 188/3/3 198/3/3
f 200/3/3 188/3/3 199/3/3
f 201/3/3 176/3/3 175/3/3
f 205/3/3 201/3/3 175/3/3
f 205/3/3 202/3/3 201/3/3
f 206/3/3 202/3/3 205/3/3
f 209/3/3 205/3/3 175/3/3
f 210/3/3 205/3/3 209/3/3
f 211/1/3 204/1/3 203/1/3
f 212/1/3 204/1/3 211/1/3
f 213/3/3 208/3/3 207/3/3
f 214/3/3 208/3/3 213/3/3
f 217/2/3 216/2/3 215/2/3
f 219/2/3 218/2/3 217/2/3
f 221/2/3 219/2/3 217/2/3
f 221/2/3 220/2/3 219/2/3
f 222/2/3 220/2/3 221/2/3
f 223/2/3 217/2/3 215/2/3
f 223/2/3 221/2/3 217/2/3
f 224/2/3 221/2/3 223/2/3
f 227/3/3 226/3/3 225/3/3
f 228/3/3 226/3/3 227/3/3
f 229/3/4 230/3/4 231/3/4
f 231/3/4 230/3/4 232/3/4
f 233/2/4 234/2/4 235/2/4
f 235/2/4 236/2/4 237/2/4
f 235/2/4 237/2/4 239/2/4
f 237/2/4 238/2/4 239/2/4
f 239/2/4 238/2/4 240/2/4
f 233/2/4 235/2/4 241/2/4
f 235/2/4 239/2/4 241/2/4
f 241/2/4 239/2/4 242/2/4
f 243/1/4 244/1/4 248/1/4
f 245/1/4 246/1/4 249/1/4
f 249/1/4 246/1/4 250/1/4
f 247/1/4 248/1/4 251/1/4
f 248/1/4 244/1/4 252/1/4
f 251/1/4 248/1/4 252/1/4
f 253/3/4 254/3/4 255/3/4
f 253/3/4 255/3/4 258/3/4
f 255/3/4 256/3/4 258/3/4
f 258/3/4 256/3/4 259/3/4
f 257/3/4 258/3/4 261/3/4
f 259/3/4 260/3/4 261/3/4
f 258/3/4 259/3/4 261/3/4
f 257/3/4 261/3/4 264/3/4
f 261/3/4 262/3/4 264/3/4
f 263/3/4 264/3/4 265/3/4
f 264/3/4 262/3/4 266/3/4
f 265/3/4 264/3/4 266/3/4
f 266/3/4 262/3/4 267/3/4
f 267/3/4 262/3/4 268/3/4
f 268/3/4 262/3/4 269/3/4
f 269/3/4 262/3/4 270/3/4
f 270/3/4 262/3/4 271/3/4
f 271/3/4 262/3/4 272/3/4
f 272/3/4 262/3/4 273/3/4
f 273/3/4 262/3/4 274/3/4
f 249/3/4 250/3/4 275/3/4
f 249/3/4 275/3/4 279/3/4
f 275/3/4 276/3/4 279/3/4
f 279/3/4 276/3/4 280/3/4
f 249/3/4 279/3/4 283/3/4
f 283/3/4 279/3/4 284/3/4
f 277/1/4 278/1/4 285/1/4
f 285/1/4 278/1/4 286/1/4
f 281/3/4 282/3/4 287/3/4
f 287/3/4 282/3/4 288/3/4
f 289/1/4 290/1/4 291/1/4
f 291/1/4 290/1/4 292/1/4
f 289/1/4 291/1/4 294/1/4
f 293/1/4 294/1/4 296/1/4
f 296/1/4 294/1/4 297/1/4
f 295/3/4 296/3/4 297/3/4
f 291/3/4 292/3/4 298/3/4
f 297/1/4 294/1/4 298/1/4
f 294/1/4 291/1/4 298/1/4
f 297/3/4 298/3/4 299/3/4
f 298/3/4 292/3/4 299/3/4
f 299/3/4 292/3/4 300/3/4
f 297/3/4 299/3/4 301/3/4
f 301/3/4 299/3/4 302/3/4
f 295/3/4 297/3/4 304/3/4
f 297/3/4 301/3/4 304/3/4
f 303/3/4 304/3/4 306/3/4
f 305/3/4 306/3/4 307/3/4
f 304/3/4 301/3/4 308/3/4
f 307/3/4 306/3/4 308/3/4
f 306/3/4 304/3/4 308/3/4
f 311/3/5 310/3/5 309/3/5
f 312/3/5 310/3/5 311/3/5
f 317/3/5 314/3/5 313/3/5
f 318/3/5 314/3/5 317/3/5
f 319/3/5 316/3/5 315/3/5
f 320/3/5 316/3/5 319/3/5
f 323/3/5 322/3/5 321/3/5
f 324/3/5 322/3/5 323/3/5
f 327/3/5 326/3/5 325/3/5
f 328/3/5 326/3/5 327/3/5
f 331/1/5 330/1/5 329/1/5
f 332/1/5 330/1/5 331/1/5
f 335/3/5 334/3/5 333/3/5
f 336/3/5 334/3/5 335/3/5
f 339/3/5 338/3/5 337/3/5
f 340/3/5 338/3/5 339/3/5
f 343/3/5 342/3/5 341/3/5
f 344/3/5 342/3/5 343/3/5
f 347/3/5 346/3/5 345/3/5
f 348/3/5 346/3/5 347/3/5
f 351/3/5 350/3/5 349/3/5
f 352/3/5 350/3/5 351/3/5
f 353/3/5 350/3/5 352/3/5
f 354/3/5 350/3/5 353/3/5
f 355/3/5 351/3/5 349/3/5
f 356/3/5 353/3/5 352/3/5
f 357/3/5 353/3/5 356/3/5
f 358/3/5 350/3/5 354/3/5
f 359/3/5 357/3/5 356/3/5
f 359/3/5 358/3/5 357/3/5
f 359/3/5 355/3/5 349/3/5
f 359/3/5 356/3/5 355/3/5
f 360/3/5 350/3/5 358/3/5
f 360/3/5 358/3/5 359/3/5
f 364/1/5 362/1/5 361/1/5
f 365/1/5 364/1/5 363/1/5
f 366/1/5 362/1/5 364/1/5
f 366/1/5 364/1/5 365/1/5
f 367/1/5 362/1/5 366/1/5
f 368/1/5 362/1/5 367/1/5
f 371/1/5 370/1/5 369/1/5
f 372/1/5 370/1/5 371/1/5
f 375/1/5 374/1/5 373/1/5
f 376/1/5 374/1/5 375/1/5
f 379/1/5 378/1/5 377/1/5
f 380/1/5 378/1/5 379/1/5
f 383/2/5 382/2/5 381/2/5
f 384/2/5 382/2/5 383/2/5
f 385/3/6 386/3/6 387/3/6
f 387/3/6 386/3/6 388/3/6
f 389/3/6 390/3/6 391/3/6
f 391/3/6 390/3/6 392/3/6
f 393/3/6 394/3/6 395/3/6
f 395/3/6 394/3/6 396/3/6
f 399/2/6 400/2/6 401/2/6
f 401/2/6 400/2/6 402/2/6
f 397/3/6 398/3/6 403/3/6
f 403/3/6 398/3/6 404/3/6
f 405/3/6 406/3/6 407/3/6
f 407/3/6 406/3/6 408/3/6
f 409/3/6 410/3/6 411/3/6
f 411/3/6 410/3/6 412/3/6
f 415/2/6 416/2/6 419/2/6
f 419/2/6 416/2/6 420/2/6
f 417/2/6 418/2/6 421/2/6
f 421/2/6 418/2/6 422/2/6
f 413/3/6 414/3/6 423/3/6
f 423/3/6 414/3/6 424/3/6
f 425/1/6 426/1/6 428/1/6
f 426/3/6 427/3/6 429/3/6
f 428/1/6 426/1/6 429/1/6
f 429/3/6 427/3/6 430/3/6
f 431/1/6 432/1/6 434/1/6
f 432/3/6 433/3/6 435/3/6
f 434/1/6 432/1/6 435/1/6
f 435/3/6 433/3/6 436/3/6
f 438/3/6 439/3/6 442/3/6
f 440/3/6 441/3/6 443/3/6
f 438/3/6 442/3/6 444/3/6
f 442/3/6 443/3/6 444/3/6
f 443/3/6 441/3/6 445/3/6
f 444/3/6 443/3/6 445/3/6
f 437/1/6 438/1/6 446/1/6
f 438/3/6 444/3/6 447/3/6
f 446/1/6 438/1/6 447/1/6
f 447/3/6 444/3/6 448/3/6
f 445/3/6 441/3/6 449/3/6
f 449/3/6 441/3/6 450/3/6
f 451/3/6 452/3/6 455/3/6
f 455/3/6 452/3/6 456/3/6
f 453/2/6 454/2/6 457/2/6
f 457/2/6 454/2/6 458/2/6
f 459/3/6 460/3/6 461/3/6
f 461/3/6 460/3/6 462/3/6
