# MagicaVoxel @ Ephtracy

# group
o 

# material
mtllib Shotgun.mtl
usemtl palette

# normals
vn -1 0 0
vn 1 0 0
vn 0 0 1
vn 0 0 -1
vn 0 -1 0
vn 0 1 0

# texcoords
vt 0.537109 0.5
vt 0.986328 0.5
vt 0.990234 0.5

# verts
v -2.5 0.2 0.2
v -2.5 0.2 -0.2
v -2.5 0.9 0.2
v -2.5 0.9 -0.2
v -2.1 0.1 0.3
v -2.1 0.1 -0.3
v -2.1 0.2 0.2
v -2.1 0.2 -0.2
v -2.1 0.5 0.3
v -2.1 0.5 0.2
v -2.1 0.5 -0.2
v -2.1 0.5 -0.3
v -0.0999999 0.5 0.2
v -0.0999999 0.5 0.1
v -0.0999999 0.7 0.2
v -0.0999999 0.7 0.1
v 1.3 0.1 0.2
v 1.3 0.1 -0.2
v 1.3 0.2 0.2
v 1.3 0.2 -0.2
v 1.6 9.68575e-08 0.2
v 1.6 9.68575e-08 -0.2
v 1.6 0.1 0.2
v 1.6 0.1 -0.2
v -0.9 0.1 0.3
v -0.9 0.1 -0.3
v -0.9 0.2 0.2
v -0.9 0.2 -0.2
v -0.9 0.5 0.3
v -0.9 0.5 0.2
v -0.9 0.5 -0.2
v -0.9 0.5 -0.3
v -0.7 0.5 0.2
v -0.7 0.5 0.1
v -0.7 0.7 0.2
v -0.7 0.7 0.1
v 0.9 0.8 0.2
v 0.9 0.8 -0.2
v 0.9 0.9 0.2
v 0.9 0.9 -0.2
v 1.3 0.7 0.2
v 1.3 0.7 -0.2
v 1.3 0.8 0.2
v 1.3 0.8 -0.2
v 1.6 0.6 0.2
v 1.6 0.6 -0.2
v 1.6 0.7 0.2
v 1.6 0.7 -0.2
v 1.8 0.5 0.2
v 1.8 0.5 -0.2
v 1.8 0.6 0.2
v 1.8 0.6 -0.2
v 1.9 0.3 0.2
v 1.9 0.3 -0.2
v 1.9 0.5 0.2
v 1.9 0.5 -0.2
v 2 9.68575e-08 0.2
v 2 9.68575e-08 -0.2
v 2 0.3 0.2
v 2 0.3 -0.2
v -2.1 0.1 0.3
v -2.1 0.5 0.3
v -0.9 0.1 0.3
v -0.9 0.5 0.3
v -2.5 0.2 0.2
v -2.5 0.9 0.2
v -2.1 0.2 0.2
v -2.1 0.5 0.2
v -0.9 0.2 0.2
v -0.9 0.5 0.2
v -0.7 0.5 0.2
v -0.7 0.7 0.2
v -0.0999999 0.5 0.2
v -0.0999999 0.7 0.2
v 0.9 0.2 0.2
v 0.9 0.8 0.2
v 0.9 0.9 0.2
v 1.3 0.1 0.2
v 1.3 0.2 0.2
v 1.3 0.7 0.2
v 1.3 0.8 0.2
v 1.6 9.68575e-08 0.2
v 1.6 0.1 0.2
v 1.6 0.6 0.2
v 1.6 0.7 0.2
v 1.8 0.5 0.2
v 1.8 0.6 0.2
v 1.9 0.3 0.2
v 1.9 0.5 0.2
v 2 9.68575e-08 0.2
v 2 0.3 0.2
v -0.7 0.5 0.1
v -0.7 0.7 0.1
v -0.0999999 0.5 0.1
v -0.0999999 0.7 0.1
v -2.5 0.2 -0.2
v -2.5 0.9 -0.2
v -2.1 0.2 -0.2
v -2.1 0.5 -0.2
v -0.9 0.2 -0.2
v -0.9 0.5 -0.2
v 0.9 0.2 -0.2
v 0.9 0.8 -0.2
v 0.9 0.9 -0.2
v 1.3 0.1 -0.2
v 1.3 0.2 -0.2
v 1.3 0.7 -0.2
v 1.3 0.8 -0.2
v 1.6 9.68575e-08 -0.2
v 1.6 0.1 -0.2
v 1.6 0.6 -0.2
v 1.6 0.7 -0.2
v 1.8 0.5 -0.2
v 1.8 0.6 -0.2
v 1.9 0.3 -0.2
v 1.9 0.5 -0.2
v 2 9.68575e-08 -0.2
v 2 0.3 -0.2
v -2.1 0.1 -0.3
v -2.1 0.5 -0.3
v -0.9 0.1 -0.3
v -0.9 0.5 -0.3
v 1.6 9.68575e-08 0.2
v 2 9.68575e-08 0.2
v 1.6 9.68575e-08 -0.2
v 2 9.68575e-08 -0.2
v -2.1 0.1 0.3
v -0.9 0.1 0.3
v 1.3 0.1 0.2
v 1.6 0.1 0.2
v 1.3 0.1 -0.2
v 1.6 0.1 -0.2
v -2.1 0.1 -0.3
v -0.9 0.1 -0.3
v -2.5 0.2 0.2
v -2.1 0.2 0.2
v -0.9 0.2 0.2
v 0.9 0.2 0.2
v 1.3 0.2 0.2
v -2.5 0.2 -0.2
v -2.1 0.2 -0.2
v -0.9 0.2 -0.2
v 0.9 0.2 -0.2
v 1.3 0.2 -0.2
v -0.7 0.7 0.2
v -0.0999999 0.7 0.2
v -0.7 0.7 0.1
v -0.0999999 0.7 0.1
v 1.9 0.3 0.2
v 2 0.3 0.2
v 1.9 0.3 -0.2
v 2 0.3 -0.2
v -2.1 0.5 0.3
v -0.9 0.5 0.3
v -2.1 0.5 0.2
v -0.9 0.5 0.2
v -0.7 0.5 0.2
v -0.0999999 0.5 0.2
v 1.8 0.5 0.2
v 1.9 0.5 0.2
v -0.7 0.5 0.1
v -0.0999999 0.5 0.1
v -2.1 0.5 -0.2
v -0.9 0.5 -0.2
v 1.8 0.5 -0.2
v 1.9 0.5 -0.2
v -2.1 0.5 -0.3
v -0.9 0.5 -0.3
v 1.6 0.6 0.2
v 1.8 0.6 0.2
v 1.6 0.6 -0.2
v 1.8 0.6 -0.2
v 1.3 0.7 0.2
v 1.6 0.7 0.2
v 1.3 0.7 -0.2
v 1.6 0.7 -0.2
v 0.9 0.8 0.2
v 1.3 0.8 0.2
v 0.9 0.8 -0.2
v 1.3 0.8 -0.2
v -2.5 0.9 0.2
v 0.9 0.9 0.2
v -2.5 0.9 -0.2
v 0.9 0.9 -0.2

# faces
f 3/3/1 2/3/1 1/3/1
f 4/3/1 2/3/1 3/3/1
f 7/1/1 6/1/1 5/1/1
f 8/1/1 6/1/1 7/1/1
f 9/1/1 7/1/1 5/1/1
f 10/1/1 7/1/1 9/1/1
f 11/1/1 6/1/1 8/1/1
f 12/1/1 6/1/1 11/1/1
f 15/3/1 14/3/1 13/3/1
f 16/3/1 14/3/1 15/3/1
f 19/1/1 18/1/1 17/1/1
f 20/1/1 18/1/1 19/1/1
f 23/1/1 22/1/1 21/1/1
f 24/1/1 22/1/1 23/1/1
f 25/1/2 26/1/2 27/1/2
f 27/1/2 26/1/2 28/1/2
f 25/1/2 27/1/2 29/1/2
f 29/1/2 27/1/2 30/1/2
f 28/1/2 26/1/2 31/1/2
f 31/1/2 26/1/2 32/1/2
f 33/3/2 34/3/2 35/3/2
f 35/3/2 34/3/2 36/3/2
f 37/3/2 38/3/2 39/3/2
f 39/3/2 38/3/2 40/3/2
f 41/1/2 42/1/2 43/1/2
f 43/1/2 42/1/2 44/1/2
f 45/1/2 46/1/2 47/1/2
f 47/1/2 46/1/2 48/1/2
f 49/1/2 50/1/2 51/1/2
f 51/1/2 50/1/2 52/1/2
f 53/1/2 54/1/2 55/1/2
f 55/1/2 54/1/2 56/1/2
f 57/1/2 58/1/2 59/1/2
f 59/1/2 58/1/2 60/1/2
f 63/1/3 62/1/3 61/1/3
f 64/1/3 62/1/3 63/1/3
f 67/3/3 66/3/3 65/3/3
f 68/3/3 66/3/3 67/3/3
f 70/3/3 66/3/3 68/3/3
f 71/3/3 66/3/3 70/3/3
f 71/3/3 70/3/3 69/3/3
f 72/3/3 66/3/3 71/3/3
f 73/3/3 71/3/3 69/3/3
f 74/3/3 66/3/3 72/3/3
f 75/3/3 73/3/3 69/3/3
f 75/3/3 74/3/3 73/3/3
f 76/3/3 66/3/3 74/3/3
f 76/3/3 74/3/3 75/3/3
f 77/3/3 66/3/3 76/3/3
f 79/1/3 76/1/3 75/1/3
f 80/1/3 76/1/3 79/1/3
f 81/1/3 76/1/3 80/1/3
f 83/1/3 79/1/3 78/1/3
f 83/1/3 80/1/3 79/1/3
f 84/1/3 80/1/3 83/1/3
f 85/1/3 80/1/3 84/1/3
f 86/1/3 83/1/3 82/1/3
f 86/1/3 84/1/3 83/1/3
f 87/1/3 84/1/3 86/1/3
f 88/1/3 86/1/3 82/1/3
f 89/1/3 86/1/3 88/1/3
f 90/1/3 88/1/3 82/1/3
f 91/1/3 88/1/3 90/1/3
f 94/2/3 93/2/3 92/2/3
f 95/2/3 93/2/3 94/2/3
f 96/3/4 97/3/4 98/3/4
f 98/3/4 97/3/4 99/3/4
f 99/3/4 97/3/4 101/3/4
f 100/3/4 101/3/4 102/3/4
f 101/3/4 97/3/4 103/3/4
f 102/3/4 101/3/4 103/3/4
f 103/3/4 97/3/4 104/3/4
f 102/1/4 103/1/4 106/1/4
f 106/1/4 103/1/4 107/1/4
f 107/1/4 103/1/4 108/1/4
f 105/1/4 106/1/4 110/1/4
f 106/1/4 107/1/4 110/1/4
f 110/1/4 107/1/4 111/1/4
f 111/1/4 107/1/4 112/1/4
f 109/1/4 110/1/4 113/1/4
f 110/1/4 111/1/4 113/1/4
f 113/1/4 111/1/4 114/1/4
f 109/1/4 113/1/4 115/1/4
f 115/1/4 113/1/4 116/1/4
f 109/1/4 115/1/4 117/1/4
f 117/1/4 115/1/4 118/1/4
f 119/1/4 120/1/4 121/1/4
f 121/1/4 120/1/4 122/1/4
f 125/1/5 124/1/5 123/1/5
f 126/1/5 124/1/5 125/1/5
f 131/1/5 130/1/5 129/1/5
f 132/1/5 130/1/5 131/1/5
f 133/1/5 128/1/5 127/1/5
f 134/1/5 128/1/5 133/1/5
f 140/3/5 136/3/5 135/3/5
f 141/3/5 136/3/5 140/3/5
f 142/3/5 138/3/5 137/3/5
f 143/1/5 139/1/5 138/1/5
f 143/3/5 138/3/5 142/3/5
f 144/1/5 139/1/5 143/1/5
f 147/3/5 146/3/5 145/3/5
f 148/3/5 146/3/5 147/3/5
f 149/1/6 150/1/6 151/1/6
f 151/1/6 150/1/6 152/1/6
f 153/1/6 154/1/6 155/1/6
f 155/1/6 154/1/6 156/1/6
f 157/3/6 158/3/6 161/3/6
f 161/3/6 158/3/6 162/3/6
f 159/1/6 160/1/6 165/1/6
f 165/1/6 160/1/6 166/1/6
f 163/1/6 164/1/6 167/1/6
f 167/1/6 164/1/6 168/1/6
f 169/1/6 170/1/6 171/1/6
f 171/1/6 170/1/6 172/1/6
f 173/1/6 174/1/6 175/1/6
f 175/1/6 174/1/6 176/1/6
f 177/1/6 178/1/6 179/1/6
f 179/1/6 178/1/6 180/1/6
f 181/3/6 182/3/6 183/3/6
f 183/3/6 182/3/6 184/3/6
