# MagicaVoxel @ Ephtracy

# group
o 

# material
mtllib TestEnemy_1-2.mtl
usemtl palette

# normals
vn -1 0 0
vn 1 0 0
vn 0 0 1
vn 0 0 -1
vn 0 -1 0
vn 0 1 0

# texcoords
vt 0.306641 0.5
vt 0.841797 0.5
vt 0.986328 0.5
vt 0.994141 0.5

# verts
v -0.2 1.7 0.1
v -0.2 1.7 -0.2
v -0.2 1.8 0.2
v -0.2 1.8 0.1
v -0.2 1.9 0.2
v -0.2 1.9 0.1
v -0.2 2 0.2
v -0.2 2 0.1
v -0.2 2.1 0.5
v -0.2 2.1 0.2
v -0.2 2.1 0.1
v -0.2 2.2 0.5
v -0.2 2.2 0.2
v -0.2 2.2 -0.2
v 0.1 2.1 0.5
v 0.1 2.1 0.2
v 0.1 2.2 0.5
v 0.1 2.2 0.2
v -0.1 2.1 0.5
v -0.1 2.1 0.2
v -0.1 2.2 0.5
v -0.1 2.2 0.2
v 0.2 1.7 0.1
v 0.2 1.7 -0.2
v 0.2 1.8 0.2
v 0.2 1.8 0.1
v 0.2 1.9 0.2
v 0.2 1.9 0.1
v 0.2 2 0.2
v 0.2 2 0.1
v 0.2 2.1 0.5
v 0.2 2.1 0.2
v 0.2 2.1 0.1
v 0.2 2.2 0.5
v 0.2 2.2 0.2
v 0.2 2.2 -0.2
v -0.2 2.1 0.5
v -0.2 2.2 0.5
v -0.1 2.1 0.5
v -0.1 2.2 0.5
v 0.1 2.1 0.5
v 0.1 2.2 0.5
v 0.2 2.1 0.5
v 0.2 2.2 0.5
v -0.2 1.8 0.2
v -0.2 1.9 0.2
v -0.2 2 0.2
v -0.2 2.1 0.2
v -0.1 2 0.2
v -0.1 2.1 0.2
v -0.1 2.2 0.2
v 0.1 2 0.2
v 0.1 2.1 0.2
v 0.1 2.2 0.2
v 0.2 1.8 0.2
v 0.2 1.9 0.2
v 0.2 2 0.2
v 0.2 2.1 0.2
v -0.2 1.7 0.1
v -0.2 1.8 0.1
v 0.2 1.7 0.1
v 0.2 1.8 0.1
v -0.2 1.7 -0.2
v -0.2 2.2 -0.2
v 0.2 1.7 -0.2
v 0.2 2.2 -0.2
v -0.2 1.7 0.1
v 0.2 1.7 0.1
v -0.2 1.7 -0.2
v 0.2 1.7 -0.2
v -0.2 1.8 0.2
v 0.2 1.8 0.2
v -0.2 1.8 0.1
v 0.2 1.8 0.1
v -0.2 2.1 0.5
v -0.1 2.1 0.5
v 0.1 2.1 0.5
v 0.2 2.1 0.5
v -0.2 2.1 0.2
v -0.1 2.1 0.2
v 0.1 2.1 0.2
v 0.2 2.1 0.2
v -0.2 2.2 0.5
v -0.1 2.2 0.5
v 0.1 2.2 0.5
v 0.2 2.2 0.5
v -0.2 2.2 0.2
v -0.1 2.2 0.2
v 0.1 2.2 0.2
v 0.2 2.2 0.2
v -0.2 2.2 -0.2
v 0.2 2.2 -0.2

# faces
f 4/1/1 2/1/1 1/1/1
f 5/4/1 4/4/1 3/4/1
f 6/1/1 2/1/1 4/1/1
f 6/4/1 4/4/1 5/4/1
f 7/1/1 6/1/1 5/1/1
f 8/1/1 2/1/1 6/1/1
f 8/1/1 6/1/1 7/1/1
f 10/2/1 8/2/1 7/2/1
f 11/1/1 2/1/1 8/1/1
f 11/2/1 8/2/1 10/2/1
f 12/3/1 10/3/1 9/3/1
f 13/1/1 11/1/1 10/1/1
f 13/3/1 10/3/1 12/3/1
f 14/1/1 2/1/1 11/1/1
f 14/1/1 11/1/1 13/1/1
f 17/3/1 16/3/1 15/3/1
f 18/3/1 16/3/1 17/3/1
f 19/3/2 20/3/2 21/3/2
f 21/3/2 20/3/2 22/3/2
f 23/1/2 24/1/2 26/1/2
f 25/4/2 26/4/2 27/4/2
f 26/1/2 24/1/2 28/1/2
f 27/4/2 26/4/2 28/4/2
f 27/1/2 28/1/2 29/1/2
f 28/1/2 24/1/2 30/1/2
f 29/1/2 28/1/2 30/1/2
f 29/2/2 30/2/2 32/2/2
f 30/1/2 24/1/2 33/1/2
f 32/2/2 30/2/2 33/2/2
f 31/3/2 32/3/2 34/3/2
f 32/1/2 33/1/2 35/1/2
f 34/3/2 32/3/2 35/3/2
f 33/1/2 24/1/2 36/1/2
f 35/1/2 33/1/2 36/1/2
f 39/3/3 38/3/3 37/3/3
f 40/3/3 38/3/3 39/3/3
f 43/3/3 42/3/3 41/3/3
f 44/3/3 42/3/3 43/3/3
f 49/1/3 47/1/3 46/1/3
f 49/2/3 48/2/3 47/2/3
f 50/2/3 48/2/3 49/2/3
f 52/1/3 49/1/3 46/1/3
f 52/1/3 51/1/3 50/1/3
f 52/1/3 50/1/3 49/1/3
f 53/1/3 51/1/3 52/1/3
f 54/1/3 51/1/3 53/1/3
f 55/4/3 46/4/3 45/4/3
f 56/1/3 52/1/3 46/1/3
f 56/4/3 46/4/3 55/4/3
f 57/2/3 53/2/3 52/2/3
f 57/1/3 52/1/3 56/1/3
f 58/2/3 53/2/3 57/2/3
f 61/1/3 60/1/3 59/1/3
f 62/1/3 60/1/3 61/1/3
f 63/1/4 64/1/4 65/1/4
f 65/1/4 64/1/4 66/1/4
f 69/1/5 68/1/5 67/1/5
f 70/1/5 68/1/5 69/1/5
f 73/4/5 72/4/5 71/4/5
f 74/4/5 72/4/5 73/4/5
f 79/3/5 76/3/5 75/3/5
f 80/3/5 76/3/5 79/3/5
f 81/3/5 78/3/5 77/3/5
f 82/3/5 78/3/5 81/3/5
f 83/3/6 84/3/6 87/3/6
f 87/3/6 84/3/6 88/3/6
f 85/3/6 86/3/6 89/3/6
f 89/3/6 86/3/6 90/3/6
f 87/1/6 88/1/6 91/1/6
f 88/1/6 89/1/6 91/1/6
f 89/1/6 90/1/6 91/1/6
f 91/1/6 90/1/6 92/1/6
