# MagicaVoxel @ Ephtracy

# group
o 

# material
mtllib TestEnemy_1-1.mtl
usemtl palette

# normals
vn -1 0 0
vn 1 0 0
vn 0 0 1
vn 0 0 -1
vn 0 -1 0
vn 0 1 0

# texcoords
vt 0.865234 0.5
vt 0.869141 0.5

# verts
v -0.4 0.9 0.1
v -0.4 0.9 -0.2
v -0.4 1.3 -1.49012e-08
v -0.4 1.3 -0.1
v -0.4 1.4 -1.49012e-08
v -0.4 1.4 -0.1
v -0.4 1.6 0.1
v -0.4 1.6 -0.2
v 0.4 0.9 0.1
v 0.4 0.9 -0.2
v 0.4 1.6 0.1
v 0.4 1.6 -0.2
v -0.4 0.9 0.1
v -0.4 1.6 0.1
v 0.4 0.9 0.1
v 0.4 1.6 0.1
v -0.4 0.9 -0.2
v -0.4 1.6 -0.2
v 0.4 0.9 -0.2
v 0.4 1.6 -0.2
v -0.4 0.9 0.1
v 0.4 0.9 0.1
v -0.4 0.9 -0.2
v 0.4 0.9 -0.2
v -0.4 1.6 0.1
v 0.4 1.6 0.1
v -0.1 1.6 -1.49012e-08
v 0.1 1.6 -1.49012e-08
v -0.1 1.6 -0.1
v 0.1 1.6 -0.1
v -0.4 1.6 -0.2
v 0.4 1.6 -0.2

# faces
f 3/1/1 2/1/1 1/1/1
f 4/1/1 2/1/1 3/1/1
f 5/1/1 3/1/1 1/1/1
f 5/2/1 4/2/1 3/2/1
f 6/1/1 2/1/1 4/1/1
f 6/2/1 4/2/1 5/2/1
f 7/1/1 5/1/1 1/1/1
f 7/1/1 6/1/1 5/1/1
f 8/1/1 2/1/1 6/1/1
f 8/1/1 6/1/1 7/1/1
f 9/1/2 10/1/2 11/1/2
f 11/1/2 10/1/2 12/1/2
f 15/1/3 14/1/3 13/1/3
f 16/1/3 14/1/3 15/1/3
f 17/1/4 18/1/4 19/1/4
f 19/1/4 18/1/4 20/1/4
f 23/1/5 22/1/5 21/1/5
f 24/1/5 22/1/5 23/1/5
f 25/1/6 26/1/6 27/1/6
f 27/1/6 26/1/6 28/1/6
f 25/1/6 27/1/6 29/1/6
f 27/2/6 28/2/6 29/2/6
f 28/1/6 26/1/6 30/1/6
f 29/2/6 28/2/6 30/2/6
f 25/1/6 29/1/6 31/1/6
f 29/1/6 30/1/6 31/1/6
f 30/1/6 26/1/6 32/1/6
f 31/1/6 30/1/6 32/1/6
