# MagicaVoxel @ Ephtracy

# group
o 

# material
mtllib TestEnemy_1-2.mtl
usemtl palette

# normals
vn -1 0 0
vn 1 0 0
vn 0 0 1
vn 0 0 -1
vn 0 -1 0
vn 0 1 0

# texcoords
vt 0.841797 0.5
vt 0.865234 0.5
vt 0.869141 0.5
vt 0.986328 0.5

# verts
v -0.3 2.1 0.3
v -0.3 2.1 0.2
v -0.3 2.2 0.4
v -0.3 2.2 0.3
v -0.3 2.3 0.3
v -0.3 2.3 0.2
v -0.3 2.5 0.4
v -0.3 2.5 0.3
v -0.2 1.7 0.1
v -0.2 1.7 -0.2
v -0.2 1.8 0.2
v -0.2 1.8 0.1
v -0.2 2 0.2
v -0.2 2 0.1
v -0.2 2.1 0.2
v -0.2 2.1 0.1
v -0.2 2.2 0.2
v -0.2 2.2 -0.2
v 0.1 2.1 0.3
v 0.1 2.1 0.2
v 0.1 2.2 0.3
v 0.1 2.2 0.2
v 0.2 2.2 0.4
v 0.2 2.2 0.3
v 0.2 2.2 0.2
v 0.2 2.3 0.3
v 0.2 2.3 0.2
v 0.2 2.5 0.4
v 0.2 2.5 0.3
v -0.2 2.2 0.4
v -0.2 2.2 0.3
v -0.2 2.2 0.2
v -0.2 2.3 0.3
v -0.2 2.3 0.2
v -0.2 2.5 0.4
v -0.2 2.5 0.3
v -0.1 2.1 0.3
v -0.1 2.1 0.2
v -0.1 2.2 0.3
v -0.1 2.2 0.2
v 0.2 1.7 0.1
v 0.2 1.7 -0.2
v 0.2 1.8 0.2
v 0.2 1.8 0.1
v 0.2 2 0.2
v 0.2 2 0.1
v 0.2 2.1 0.2
v 0.2 2.1 0.1
v 0.2 2.2 0.2
v 0.2 2.2 -0.2
v 0.3 2.1 0.3
v 0.3 2.1 0.2
v 0.3 2.2 0.4
v 0.3 2.2 0.3
v 0.3 2.3 0.3
v 0.3 2.3 0.2
v 0.3 2.5 0.4
v 0.3 2.5 0.3
v -0.3 2.2 0.4
v -0.3 2.5 0.4
v -0.2 2.2 0.4
v -0.2 2.5 0.4
v 0.2 2.2 0.4
v 0.2 2.5 0.4
v 0.3 2.2 0.4
v 0.3 2.5 0.4
v -0.3 2.1 0.3
v -0.3 2.2 0.3
v -0.2 2.2 0.3
v -0.1 2.1 0.3
v -0.1 2.2 0.3
v 0.1 2.1 0.3
v 0.1 2.2 0.3
v 0.2 2.2 0.3
v 0.3 2.1 0.3
v 0.3 2.2 0.3
v -0.2 1.8 0.2
v -0.2 2 0.2
v -0.2 2.1 0.2
v -0.1 2 0.2
v -0.1 2.1 0.2
v -0.1 2.2 0.2
v 0.1 2 0.2
v 0.1 2.1 0.2
v 0.1 2.2 0.2
v 0.2 1.8 0.2
v 0.2 2 0.2
v 0.2 2.1 0.2
v -0.2 1.7 0.1
v -0.2 1.8 0.1
v 0.2 1.7 0.1
v 0.2 1.8 0.1
v -0.3 2.3 0.3
v -0.3 2.5 0.3
v -0.2 2.3 0.3
v -0.2 2.5 0.3
v 0.2 2.3 0.3
v 0.2 2.5 0.3
v 0.3 2.3 0.3
v 0.3 2.5 0.3
v -0.3 2.1 0.2
v -0.3 2.3 0.2
v -0.2 2.1 0.2
v -0.2 2.2 0.2
v -0.2 2.3 0.2
v 0.2 2.1 0.2
v 0.2 2.2 0.2
v 0.2 2.3 0.2
v 0.3 2.1 0.2
v 0.3 2.3 0.2
v -0.2 1.7 -0.2
v -0.2 2.2 -0.2
v -0.1 1.9 -0.2
v -0.1 2 -0.2
v 0.1 1.9 -0.2
v 0.1 2 -0.2
v 0.2 1.7 -0.2
v 0.2 2.2 -0.2
v -0.2 1.7 0.1
v 0.2 1.7 0.1
v -0.2 1.7 -0.2
v 0.2 1.7 -0.2
v -0.2 1.8 0.2
v 0.2 1.8 0.2
v -0.2 1.8 0.1
v 0.2 1.8 0.1
v -0.3 2.1 0.3
v -0.1 2.1 0.3
v 0.1 2.1 0.3
v 0.3 2.1 0.3
v -0.3 2.1 0.2
v -0.2 2.1 0.2
v -0.1 2.1 0.2
v 0.1 2.1 0.2
v 0.2 2.1 0.2
v 0.3 2.1 0.2
v -0.3 2.2 0.4
v -0.2 2.2 0.4
v 0.2 2.2 0.4
v 0.3 2.2 0.4
v -0.3 2.2 0.3
v -0.2 2.2 0.3
v 0.2 2.2 0.3
v 0.3 2.2 0.3
v -0.2 2.2 0.3
v -0.1 2.2 0.3
v 0.1 2.2 0.3
v 0.2 2.2 0.3
v -0.2 2.2 0.2
v -0.1 2.2 0.2
v 0.1 2.2 0.2
v 0.2 2.2 0.2
v -0.2 2.2 -0.2
v 0.2 2.2 -0.2
v -0.3 2.3 0.3
v -0.2 2.3 0.3
v 0.2 2.3 0.3
v 0.3 2.3 0.3
v -0.3 2.3 0.2
v -0.2 2.3 0.2
v 0.2 2.3 0.2
v 0.3 2.3 0.2
v -0.3 2.5 0.4
v -0.2 2.5 0.4
v 0.2 2.5 0.4
v 0.3 2.5 0.4
v -0.3 2.5 0.3
v -0.2 2.5 0.3
v 0.2 2.5 0.3
v 0.3 2.5 0.3

# faces
f 4/4/1 2/4/1 1/4/1
f 5/4/1 2/4/1 4/4/1
f 5/4/1 4/4/1 3/4/1
f 6/4/1 2/4/1 5/4/1
f 7/4/1 5/4/1 3/4/1
f 8/4/1 5/4/1 7/4/1
f 12/2/1 10/2/1 9/2/1
f 13/2/1 12/2/1 11/2/1
f 14/2/1 10/2/1 12/2/1
f 14/2/1 12/2/1 13/2/1
f 15/1/1 14/1/1 13/1/1
f 16/2/1 10/2/1 14/2/1
f 16/1/1 14/1/1 15/1/1
f 17/2/1 16/2/1 15/2/1
f 18/2/1 10/2/1 16/2/1
f 18/2/1 16/2/1 17/2/1
f 21/4/1 20/4/1 19/4/1
f 22/4/1 20/4/1 21/4/1
f 26/4/1 24/4/1 23/4/1
f 26/4/1 25/4/1 24/4/1
f 27/4/1 25/4/1 26/4/1
f 28/4/1 26/4/1 23/4/1
f 29/4/1 26/4/1 28/4/1
f 30/4/2 31/4/2 33/4/2
f 31/4/2 32/4/2 33/4/2
f 33/4/2 32/4/2 34/4/2
f 30/4/2 33/4/2 35/4/2
f 35/4/2 33/4/2 36/4/2
f 37/4/2 38/4/2 39/4/2
f 39/4/2 38/4/2 40/4/2
f 41/2/2 42/2/2 44/2/2
f 43/2/2 44/2/2 45/2/2
f 44/2/2 42/2/2 46/2/2
f 45/2/2 44/2/2 46/2/2
f 45/1/2 46/1/2 47/1/2
f 46/2/2 42/2/2 48/2/2
f 47/1/2 46/1/2 48/1/2
f 47/2/2 48/2/2 49/2/2
f 48/2/2 42/2/2 50/2/2
f 49/2/2 48/2/2 50/2/2
f 51/4/2 52/4/2 54/4/2
f 54/4/2 52/4/2 55/4/2
f 53/4/2 54/4/2 55/4/2
f 55/4/2 52/4/2 56/4/2
f 53/4/2 55/4/2 57/4/2
f 57/4/2 55/4/2 58/4/2
f 61/4/3 60/4/3 59/4/3
f 62/4/3 60/4/3 61/4/3
f 65/4/3 64/4/3 63/4/3
f 66/4/3 64/4/3 65/4/3
f 69/4/3 68/4/3 67/4/3
f 70/4/3 69/4/3 67/4/3
f 71/4/3 69/4/3 70/4/3
f 74/4/3 73/4/3 72/4/3
f 75/4/3 74/4/3 72/4/3
f 76/4/3 74/4/3 75/4/3
f 80/2/3 78/2/3 77/2/3
f 80/1/3 79/1/3 78/1/3
f 81/1/3 79/1/3 80/1/3
f 83/2/3 80/2/3 77/2/3
f 83/2/3 82/2/3 81/2/3
f 83/2/3 81/2/3 80/2/3
f 84/2/3 82/2/3 83/2/3
f 85/2/3 82/2/3 84/2/3
f 86/2/3 83/2/3 77/2/3
f 87/1/3 84/1/3 83/1/3
f 87/2/3 83/2/3 86/2/3
f 88/1/3 84/1/3 87/1/3
f 91/2/3 90/2/3 89/2/3
f 92/2/3 90/2/3 91/2/3
f 93/4/4 94/4/4 95/4/4
f 95/4/4 94/4/4 96/4/4
f 97/4/4 98/4/4 99/4/4
f 99/4/4 98/4/4 100/4/4
f 101/4/4 102/4/4 103/4/4
f 103/4/4 102/4/4 104/4/4
f 104/4/4 102/4/4 105/4/4
f 106/4/4 107/4/4 109/4/4
f 107/4/4 108/4/4 109/4/4
f 109/4/4 108/4/4 110/4/4
f 111/2/4 112/2/4 113/2/4
f 113/2/4 112/2/4 114/2/4
f 111/2/4 113/2/4 115/2/4
f 113/3/4 114/3/4 115/3/4
f 114/2/4 112/2/4 116/2/4
f 115/3/4 114/3/4 116/3/4
f 111/2/4 115/2/4 117/2/4
f 115/2/4 116/2/4 117/2/4
f 116/2/4 112/2/4 118/2/4
f 117/2/4 116/2/4 118/2/4
f 121/2/5 120/2/5 119/2/5
f 122/2/5 120/2/5 121/2/5
f 125/2/5 124/2/5 123/2/5
f 126/2/5 124/2/5 125/2/5
f 131/4/5 128/4/5 127/4/5
f 132/4/5 128/4/5 131/4/5
f 133/4/5 128/4/5 132/4/5
f 134/4/5 130/4/5 129/4/5
f 135/4/5 130/4/5 134/4/5
f 136/4/5 130/4/5 135/4/5
f 141/4/5 138/4/5 137/4/5
f 142/4/5 138/4/5 141/4/5
f 143/4/5 140/4/5 139/4/5
f 144/4/5 140/4/5 143/4/5
f 145/4/6 146/4/6 149/4/6
f 149/4/6 146/4/6 150/4/6
f 147/4/6 148/4/6 151/4/6
f 151/4/6 148/4/6 152/4/6
f 149/2/6 150/2/6 153/2/6
f 150/2/6 151/2/6 153/2/6
f 151/2/6 152/2/6 153/2/6
f 153/2/6 152/2/6 154/2/6
f 155/4/6 156/4/6 159/4/6
f 159/4/6 156/4/6 160/4/6
f 157/4/6 158/4/6 161/4/6
f 161/4/6 158/4/6 162/4/6
f 163/4/6 164/4/6 167/4/6
f 167/4/6 164/4/6 168/4/6
f 165/4/6 166/4/6 169/4/6
f 169/4/6 166/4/6 170/4/6
